<?xml version="1.0" encoding="utf-8"?>
<!-- Generator: Adobe Illustrator 25.2.1, SVG Export Plug-In . SVG Version: 6.00 Build 0)  -->
<svg version="1.1" id="Camada_1" xmlns="http://www.w3.org/2000/svg" xmlns:xlink="http://www.w3.org/1999/xlink" x="0px" y="0px"
	 viewBox="0 0 320.1 320" style="enable-background:new 0 0 320.1 320;" xml:space="preserve">
<style type="text/css">
	.st0{stroke:#000000;stroke-width:0.25;stroke-miterlimit:10;}
	.st1{fill:none;stroke:#000000;stroke-width:3;stroke-miterlimit:10;}
</style>
<g>
	<g>
		<path d="M153.42,257.99c-2.46-3.23-4.34-6.89-5.63-10.81c-0.7-1.95-1.06-4.02-1.31-6.12c-0.21-2.11-0.02-4.32,0.57-6.47l0.58-1.59
			l0.65-1.38c0.46-0.91,0.9-1.82,1.39-2.71c0.98-1.77,1.96-3.54,3.03-5.23l3.15-5.09c0.54-0.84,1.02-1.7,1.48-2.57
			c0.22-0.44,0.43-0.88,0.59-1.34c0.18-0.46,0.27-0.93,0.25-1.44c0.39,0.97,0.17,2.09-0.06,3.07c-0.25,1-0.58,1.97-0.93,2.93
			c-0.74,1.9-1.56,3.74-2.41,5.56c-0.82,1.83-1.74,3.6-2.56,5.41l-1.25,2.69l-0.61,1.34l-0.43,1.24c-0.51,1.69-0.71,3.53-0.61,5.41
			c0.07,1.88,0.34,3.79,0.74,5.7C150.85,250.39,152.06,254.18,153.42,257.99z"/>
	</g>
	<g>
		<path d="M153.59,257.44c-2.24-3.2-3.64-7.01-4.17-10.98c-0.29-1.99-0.25-4.04,0-6.07c0.29-2.03,0.94-4.03,1.83-5.89
			c0.47-0.97,0.91-1.72,1.37-2.58c0.45-0.83,0.89-1.67,1.32-2.51c0.9-1.66,1.66-3.38,2.44-5.1c1.52-3.45,2.7-7.01,3.48-10.83
			c0.47,3.88-0.11,7.89-1.28,11.64c-0.55,1.89-1.3,3.72-2.08,5.51c-0.38,0.9-0.83,1.77-1.26,2.65c-0.44,0.85-0.95,1.77-1.31,2.53
			c-1.63,3.15-2.24,6.79-2.19,10.46C151.82,249.97,152.48,253.72,153.59,257.44z"/>
	</g>
	<g>
		<path d="M153.42,255.76c-1.71-3.31-2.07-7.29-1.46-11.06c0.26-1.91,0.92-3.74,1.69-5.51c0.43-0.86,0.84-1.74,1.37-2.54l1.47-2.31
			c0.95-1.45,1.76-2.99,2.43-4.57c0.7-1.58,1.18-3.23,1.56-4.93c0.35-1.7,0.55-3.45,0.59-5.24c0.09-1.79-0.06-3.62,0.04-5.48
			c0.56,1.76,1.11,3.51,1.43,5.37c0.31,1.85,0.43,3.76,0.25,5.67c-0.14,1.91-0.56,3.82-1.23,5.62c-0.14,0.46-0.33,0.9-0.53,1.34
			c-0.2,0.44-0.38,0.89-0.59,1.32c-0.47,0.83-0.88,1.71-1.43,2.49l-1.5,2.28c-0.51,0.7-0.89,1.47-1.32,2.21
			c-0.77,1.53-1.49,3.11-1.96,4.77C153.29,248.53,152.91,252.11,153.42,255.76z"/>
	</g>
	<g>
		<path d="M153.46,254.32c-0.59-1.76-0.5-3.7-0.25-5.55c0.3-1.85,0.85-3.67,1.6-5.39c0.72-1.73,1.65-3.37,2.67-4.93
			c1.01-1.55,2.27-3.05,3.18-4.37l0.38-0.51l0.31-0.54l0.63-1.08c0.39-0.73,0.71-1.5,1.02-2.27c0.56-1.57,0.91-3.2,1.09-4.89
			c0.23-3.38-0.31-6.9-1.59-10.33c2.38,2.81,3.74,6.52,3.93,10.36c0.09,1.93-0.19,3.88-0.73,5.75c-0.12,0.48-0.34,0.91-0.5,1.37
			c-0.19,0.45-0.33,0.92-0.58,1.34l-0.71,1.27l-0.36,0.63l-0.42,0.59c-1.16,1.64-2.27,2.87-3.32,4.3c-1.05,1.4-2.02,2.85-2.91,4.35
			c-0.87,1.51-1.66,3.07-2.27,4.71C154.02,250.78,153.53,252.5,153.46,254.32z"/>
	</g>
	<g>
		<path d="M153.88,252c1.08-3.43,2.59-6.68,4.38-9.79c0.89-1.57,1.87-3.08,2.96-4.54c0.55-0.73,1.14-1.44,1.76-2.13
			c0.56-0.67,1.01-1.17,1.4-1.87c1.58-2.66,2.19-6.03,2.15-9.38c-0.07-3.36-0.59-6.8-2.17-10.02c1.33,1.22,2.3,2.83,3.05,4.51
			c0.71,1.69,1.21,3.49,1.46,5.33c0.52,3.66,0.11,7.65-1.92,11.1c-0.48,0.85-1.21,1.67-1.8,2.34c-0.59,0.6-1.14,1.25-1.7,1.89
			c-1.11,1.31-2.17,2.68-3.24,4.06C158.1,246.27,156.06,249.15,153.88,252z"/>
	</g>
	<g>
		<path d="M157.56,199.76c-0.3,0.29-0.57,0.61-0.77,0.96c-0.2,0.34-0.35,0.75-0.23,1.08c0.21,0.88,0.17,1.69,0.2,2.53
			c0.01,1.67-0.02,3.33-0.11,4.99l0,0.05l-0.04,0.11c-0.17,0.48-0.29,1.05-0.27,1.51c0.01,0.23,0.06,0.44,0.15,0.58
			c0.05,0.06,0.09,0.12,0.15,0.17c0.09,0.1,0.33,0.34,0.42,0.54c0.39,0.92,0.14,1.64-0.02,2.28c-0.21,0.62-0.47,1.2-0.76,1.75
			c-1.15,2.19-2.53,4.15-3.93,6.11c-0.71,0.97-1.43,1.92-2.15,2.87c-0.72,0.95-1.33,1.83-1.86,2.82c-1.06,1.95-1.67,4.09-1.88,6.3
			c-0.22,2.21-0.03,4.47,0.39,6.72c0.4,2.24,0.98,4.56,1.63,6.75c0.64,2.1,1.69,4.08,3,5.9c1.28,1.81,2.87,3.56,4.51,4.91
			l-2.26,1.69c-0.44-1.28-0.64-2.41-0.74-3.66c-0.09-1.23-0.02-2.49,0.28-3.73c0.3-1.24,0.86-2.44,1.63-3.48l0.61-0.75l0.55-0.62
			l1.1-1.23c2.93-3.3,5.89-6.56,8.87-9.82l0.56-0.61c0.04-0.05-0.04,0.05,0.01-0.01l0.09-0.16l0.19-0.34
			c0.25-0.47,0.49-0.95,0.72-1.44c0.47-0.97,0.91-1.96,1.3-2.97c0.76-2.01,1.43-4.1,1.54-6.16c0.09-2.08-0.47-4.21-1.3-6.21
			c-0.86-1.99-1.98-3.92-3.52-5.51c1.73,1.39,3.11,3.21,4.19,5.19c1.07,1.98,1.85,4.18,1.96,6.53c0.08,2.37-0.53,4.6-1.18,6.76
			c-0.35,1.08-0.73,2.14-1.16,3.19c-0.21,0.53-0.44,1.04-0.68,1.56l-0.19,0.4l-0.11,0.21c-0.03,0.06-0.17,0.28-0.22,0.34l-0.53,0.64
			c-2.82,3.42-5.65,6.83-8.52,10.21l-1.07,1.27l-0.54,0.64l-0.42,0.55c-0.52,0.75-0.88,1.6-1.09,2.51
			c-0.21,0.91-0.26,1.88-0.18,2.85c0.07,0.95,0.29,2.01,0.58,2.82l1.77,4.96l-4.03-3.27c-2.04-1.65-3.68-3.46-5.17-5.51
			c-1.44-2.05-2.63-4.33-3.36-6.79c-0.67-2.37-1.24-4.68-1.63-7.13c-0.38-2.43-0.53-4.96-0.21-7.48c0.3-2.52,1.1-5.02,2.43-7.19
			c0.64-1.08,1.45-2.12,2.21-3.03c0.76-0.91,1.52-1.82,2.26-2.73c1.48-1.83,2.97-3.68,4.16-5.63c0.3-0.49,0.55-0.98,0.76-1.47
			c0.19-0.47,0.29-0.99,0.21-1.2c0.01-0.04-0.03-0.04-0.04-0.07c-0.03-0.04,0.02-0.01-0.07-0.11c-0.16-0.16-0.28-0.35-0.38-0.54
			c-0.18-0.4-0.22-0.79-0.21-1.15c0.04-0.72,0.23-1.32,0.51-1.94l-0.04,0.17c0.2-1.64,0.43-3.28,0.58-4.92
			c0.05-0.81,0.18-1.67,0.09-2.42c-0.11-0.5,0.15-0.92,0.39-1.25C156.92,200.29,157.23,200.01,157.56,199.76z"/>
	</g>
	<g>
		<path d="M156.34,211.66c1.05,0.32,1.87,0.55,2.66,0.73c0.78,0.18,1.49,0.33,2.22,0.44c0.73,0.09,1.46,0.21,2.29,0.28
			c0.42,0.07,0.84,0.06,1.31,0.15c0.47,0.06,0.94,0.08,1.5,0.23c-0.3,0.46-0.67,0.83-1.07,1.17c-0.42,0.29-0.86,0.6-1.35,0.77
			c-0.97,0.41-2.07,0.51-3.15,0.36c-1.08-0.16-2.11-0.65-2.92-1.36C157.04,213.71,156.43,212.77,156.34,211.66z"/>
	</g>
	<g>
		<path d="M165.89,213.01c0.1-0.24,0.03-0.45-0.02-0.64c-0.07-0.19-0.13-0.38-0.22-0.56l-0.52-1.08l-0.01-0.28
			c-0.16-0.98-0.19-1.96-0.09-2.92c0.1-0.96,0.29-1.92,0.66-2.85l0.03-0.16c0.06-0.01,0.15-0.2,0.21-0.32
			c0.07-0.14,0.13-0.29,0.19-0.46c0.11-0.33,0.17-0.71,0.15-1.19c0.47,0.13,0.88,0.48,1.14,0.92c0.15,0.22,0.25,0.46,0.32,0.71
			c0.06,0.27,0.13,0.48,0.11,0.85l0.03-0.16c0.2,0.99,0.22,1.96,0.15,2.93c-0.07,0.96-0.27,1.92-0.59,2.86l-0.01-0.28
			c-0.05,0.5-0.13,1.01-0.34,1.51c-0.12,0.25-0.23,0.5-0.43,0.72C166.45,212.82,166.18,213.04,165.89,213.01z"/>
	</g>
	<g>
		<path d="M156.76,208.42c0.99,0.24,1.74,0.44,2.46,0.63l1.98,0.52c0.64,0.15,1.27,0.35,1.98,0.51c0.72,0.21,1.49,0.37,2.46,0.74
			c-0.6,0.82-1.42,1.35-2.34,1.61c-0.91,0.29-1.92,0.27-2.87,0.03c-0.95-0.24-1.82-0.75-2.48-1.44
			C157.3,210.33,156.8,209.46,156.76,208.42z"/>
	</g>
	<g>
		<path d="M157.09,200.71c1-0.12,1.83-0.05,2.62,0.07c0.79,0.13,1.51,0.34,2.21,0.59c0.7,0.25,1.36,0.57,2.03,0.93
			c0.67,0.37,1.31,0.78,2.14,1.37c-0.77,0.66-1.73,0.89-2.62,0.94c-0.9,0.04-1.77-0.13-2.57-0.42c-0.81-0.29-1.54-0.73-2.2-1.29
			C158.05,202.33,157.47,201.66,157.09,200.71z"/>
	</g>
	<g>
		<path d="M157.56,200.33c-0.74-1.14-1.16-2.32-1.49-3.51c-0.31-1.19-0.5-2.4-0.56-3.62c-0.06-1.22-0.01-2.45,0.21-3.69
			c0.25-1.21,0.57-2.54,1.48-3.59c0.33,1.29,0.67,2.4,0.88,3.59c0.22,1.17,0.37,2.35,0.42,3.54c0.06,1.19,0.04,2.38-0.09,3.59
			C158.28,197.85,158.06,199.07,157.56,200.33z"/>
	</g>
	<g>
		<path d="M156.99,192.68c1.11-0.11,2.07-0.04,2.99,0.09c0.92,0.13,1.78,0.34,2.62,0.57c0.84,0.23,1.65,0.53,2.47,0.84
			c0.83,0.32,1.63,0.67,2.66,1.12c-0.82,0.78-1.9,1.1-2.94,1.22c-1.05,0.11-2.06-0.03-3.03-0.3c-0.96-0.27-1.86-0.71-2.68-1.28
			C158.29,194.37,157.53,193.67,156.99,192.68z"/>
	</g>
	<g>
		<path d="M156.91,189.17c1.16,0.03,2.14,0.18,3.09,0.36c0.94,0.19,1.84,0.41,2.72,0.66c0.88,0.26,1.74,0.54,2.63,0.87
			c0.89,0.36,1.79,0.67,2.82,1.25c-0.94,0.67-2.03,1.01-3.11,1.09c-1.08,0.09-2.17-0.02-3.19-0.33c-1.02-0.3-1.99-0.77-2.85-1.4
			C158.17,191.02,157.39,190.24,156.91,189.17z"/>
	</g>
	<g>
		<path d="M157.5,186.92c1.12,0.09,2.03,0.2,2.93,0.36c0.89,0.15,1.73,0.33,2.57,0.54c0.84,0.19,1.67,0.45,2.54,0.73
			c0.87,0.31,1.76,0.62,2.75,1.2c-0.91,0.67-1.91,1.01-2.94,1.15c-1.02,0.16-2.07,0.06-3.07-0.17c-1-0.25-1.96-0.69-2.81-1.3
			C158.65,188.79,157.88,188,157.5,186.92z"/>
	</g>
	<g>
		<path d="M156.87,186.2c0.27-8.8,0.69-17.6,1.19-26.4c0.26-4.4,0.53-8.79,0.87-13.19c0.35-4.4,0.74-8.78,1.47-13.2l-0.01,0.07
			c1.79-17.64,3.5-35.29,5.36-52.93c0.95-8.82,1.8-17.64,2.86-26.45l3.1-26.41l0.21-1.8l1.84,0.61l0.33,0.11l0.42,0.12
			c0.29,0.07,0.58,0.14,0.89,0.2l1.22,0.24l-0.02,1.25l-0.53,26.83l-0.14,6.71l-0.22,6.71l-0.48,13.41l-1.01,26.82l-1.13,26.81
			l0-0.09c0.2,4.5,0.01,8.92-0.24,13.35c-0.26,4.42-0.57,8.84-0.98,13.24c-0.83,8.81-1.8,17.59-2.91,26.36l0-0.05
			c0.09,2.48-0.27,4.92-0.81,7.31c-0.56,2.38-1.28,4.72-2.18,6.98c0.8-2.3,1.42-4.66,1.87-7.05c0.43-2.39,0.69-4.81,0.53-7.21
			l0-0.02l0-0.03c0.82-8.79,1.51-17.6,2.05-26.41c0.28-4.4,0.53-8.81,0.69-13.21c0.16-4.4,0.25-8.81-0.02-13.14l0-0.04l0-0.05
			l0.6-26.82l0.73-26.82l0.38-13.41l0.2-6.7l0.12-6.71l0.49-26.82l1.2,1.49c-0.35-0.07-0.7-0.15-1.06-0.24l-0.54-0.15
			c-0.2-0.06-0.34-0.1-0.61-0.21l2.05-1.19l-3.19,26.4c-1.11,8.79-2.08,17.6-3.11,26.41c-2.02,17.61-4.2,35.21-6.3,52.81l0,0.04
			l-0.01,0.03c-0.81,4.25-1.24,8.65-1.75,13.01c-0.47,4.37-0.89,8.75-1.29,13.13C158.25,168.64,157.55,177.42,156.87,186.2z"/>
	</g>
	<g>
		<path d="M173.83,56.07c0.25,0.67,0.12,1.23-0.21,1.67c-0.33,0.44-0.96,0.75-1.63,0.7c-0.67-0.04-1.25-0.42-1.52-0.89
			c-0.27-0.48-0.31-1.03-0.03-1.67c0.37-0.08,0.62-0.09,0.86-0.13c0.23-0.06,0.4-0.07,0.54-0.12c0.28-0.07,0.34-0.19,0.35-0.18
			c0,0,0.05,0.12,0.31,0.23C172.75,55.8,173.15,55.92,173.83,56.07z"/>
	</g>
	<g>
		<path d="M169.91,59.35c0.7,0.18,1.13,0.23,1.42,0.21c0.29-0.02,0.37-0.11,0.43-0.09c0.07,0.01,0.2,0.11,0.49,0.27
			c0.15,0.07,0.33,0.15,0.55,0.27c0.23,0.11,0.47,0.22,0.8,0.42c-0.03,0.72-0.32,1.22-0.75,1.58c-0.45,0.34-1.09,0.52-1.78,0.37
			c-0.69-0.15-1.29-0.68-1.5-1.26C169.37,60.54,169.43,59.9,169.91,59.35z"/>
	</g>
</g>
<g>
	<path class="st0" d="M152.55,274.64c-0.13,0.93,0.12,2.03,1,2.47c0.35,0.17,0.76,0.22,1.16,0.23c1.4,0.04,2.82-0.3,4.03-0.97
		c0.33-0.18,0.65-0.4,0.9-0.66c0.64-0.67,0.81-1.62,0.89-2.52c0.26-3.12-0.25-6.79-1.99-9.52
		C159.26,268.02,153.13,270.52,152.55,274.64z"/>
	<ellipse class="st0" cx="136.35" cy="290.08" rx="5.92" ry="2.57"/>
	<ellipse class="st0" cx="168.58" cy="305.23" rx="7.1" ry="1.85"/>
	<ellipse class="st0" cx="167.45" cy="287.51" rx="7.1" ry="1.85"/>
</g>
<circle class="st1" cx="160.05" cy="160" r="160"/>
</svg>
