<?xml version="1.0" encoding="utf-8"?>
<!-- Generator: Adobe Illustrator 25.2.1, SVG Export Plug-In . SVG Version: 6.00 Build 0)  -->
<svg version="1.1" id="Camada_1" xmlns="http://www.w3.org/2000/svg" xmlns:xlink="http://www.w3.org/1999/xlink" x="0px" y="0px"
	 viewBox="0 0 320.1 320" style="enable-background:new 0 0 320.1 320;" xml:space="preserve">
<style type="text/css">
	.st0{fill:#FFFFFF;}
	.st1{fill:#FFFFFF;stroke:#FFFFFF;stroke-width:0.25;stroke-miterlimit:10;}
	.st2{fill:none;stroke:#FFFFFF;stroke-width:3;stroke-miterlimit:10;}
</style>
<g>
	<g>
		<path class="st0" d="M153.68,257.06c-2.44-3.19-4.3-6.81-5.58-10.69c-0.69-1.93-1.05-3.97-1.3-6.06
			c-0.21-2.09-0.02-4.28,0.57-6.41l0.57-1.57l0.65-1.37c0.45-0.9,0.89-1.8,1.38-2.68c0.97-1.75,1.94-3.49,3-5.17l3.12-5.03
			c0.53-0.83,1.01-1.68,1.46-2.54c0.22-0.43,0.43-0.87,0.58-1.33c0.18-0.46,0.26-0.92,0.25-1.43c0.38,0.96,0.17,2.06-0.05,3.04
			c-0.24,0.99-0.57,1.95-0.92,2.9c-0.73,1.88-1.54,3.7-2.38,5.5c-0.81,1.81-1.72,3.56-2.52,5.35l-1.23,2.66l-0.61,1.33l-0.43,1.23
			c-0.5,1.67-0.7,3.48-0.6,5.35c0.07,1.86,0.33,3.75,0.72,5.63C151.14,249.54,152.34,253.29,153.68,257.06z"/>
	</g>
	<g>
		<path class="st0" d="M153.84,256.51c-2.22-3.16-3.61-6.92-4.13-10.86c-0.28-1.97-0.25-3.99,0-6.01c0.28-2.01,0.92-3.98,1.81-5.83
			c0.46-0.96,0.9-1.7,1.35-2.55c0.44-0.82,0.88-1.65,1.31-2.48c0.89-1.64,1.64-3.34,2.42-5.04c1.5-3.41,2.67-6.93,3.45-10.71
			c0.47,3.83-0.1,7.8-1.26,11.51c-0.54,1.87-1.28,3.68-2.05,5.45c-0.38,0.89-0.82,1.75-1.24,2.62c-0.43,0.84-0.94,1.75-1.29,2.5
			c-1.61,3.12-2.21,6.7-2.17,10.33C152.1,249.13,152.76,252.83,153.84,256.51z"/>
	</g>
	<g>
		<path class="st0" d="M153.67,254.85c-1.7-3.27-2.06-7.21-1.46-10.94c0.26-1.89,0.91-3.7,1.66-5.45c0.42-0.85,0.83-1.72,1.35-2.52
			l1.45-2.29c1.86-2.88,3.23-6.03,3.94-9.38c0.34-1.68,0.55-3.41,0.59-5.17c0.09-1.77-0.05-3.58,0.04-5.42
			c0.56,1.74,1.1,3.47,1.43,5.31c0.31,1.83,0.43,3.72,0.26,5.61c-0.14,1.89-0.55,3.78-1.21,5.56c-0.14,0.46-0.33,0.9-0.52,1.33
			c-0.2,0.43-0.37,0.88-0.58,1.3c-0.46,0.83-0.87,1.69-1.41,2.46l-1.48,2.26c-0.51,0.69-0.88,1.45-1.31,2.19
			c-0.76,1.51-1.47,3.07-1.94,4.72C153.55,247.71,153.18,251.24,153.67,254.85z"/>
	</g>
	<g>
		<path class="st0" d="M153.72,253.43c-0.59-1.74-0.5-3.66-0.25-5.49c0.3-1.83,0.84-3.63,1.58-5.33c0.71-1.72,1.63-3.34,2.64-4.88
			c0.99-1.54,2.25-3.02,3.14-4.32l0.37-0.5l0.31-0.54l0.62-1.07c0.39-0.72,0.7-1.49,1.01-2.24c0.56-1.55,0.9-3.16,1.08-4.83
			c0.23-3.34-0.3-6.82-1.56-10.21c2.36,2.78,3.7,6.44,3.9,10.24c0.09,1.91-0.18,3.84-0.72,5.69c-0.12,0.47-0.33,0.9-0.5,1.36
			c-0.19,0.44-0.32,0.92-0.57,1.33l-0.7,1.26l-0.36,0.63l-0.42,0.58c-1.15,1.62-2.25,2.84-3.28,4.25c-1.04,1.38-1.99,2.81-2.88,4.29
			c-0.86,1.49-1.65,3.03-2.25,4.65C154.27,249.93,153.79,251.63,153.72,253.43z"/>
	</g>
	<g>
		<path class="st0" d="M154.13,251.13c1.06-3.39,2.55-6.61,4.32-9.69c0.87-1.55,1.85-3.05,2.93-4.49c0.55-0.72,1.12-1.42,1.74-2.11
			c0.55-0.66,1-1.16,1.38-1.85c1.56-2.63,2.16-5.95,2.13-9.26c-0.07-3.32-0.58-6.72-2.13-9.9c1.32,1.21,2.28,2.8,3.02,4.45
			c0.71,1.67,1.2,3.45,1.45,5.28c0.52,3.62,0.11,7.56-1.9,10.98c-0.47,0.84-1.19,1.66-1.78,2.32c-0.58,0.59-1.13,1.23-1.68,1.87
			c-1.1,1.29-2.14,2.65-3.2,4.01C158.32,245.48,156.29,248.32,154.13,251.13z"/>
	</g>
	<g>
		<path class="st0" d="M157.77,199.48c-0.29,0.28-0.56,0.6-0.77,0.95c-0.2,0.34-0.35,0.75-0.23,1.06c0.21,0.87,0.17,1.67,0.2,2.51
			c0.01,1.65-0.02,3.29-0.1,4.94l0,0.05l-0.04,0.11c-0.17,0.47-0.29,1.03-0.26,1.49c0.01,0.23,0.06,0.44,0.14,0.57
			c0.05,0.06,0.09,0.12,0.15,0.16c0.09,0.1,0.33,0.34,0.42,0.53c0.39,0.91,0.14,1.63-0.02,2.26c-0.21,0.61-0.46,1.19-0.75,1.73
			c-1.14,2.17-2.5,4.11-3.88,6.04c-0.7,0.96-1.41,1.9-2.13,2.84c-0.71,0.94-1.32,1.81-1.84,2.78c-1.05,1.92-1.65,4.04-1.86,6.22
			c-0.22,2.18-0.03,4.42,0.38,6.64c0.4,2.21,0.96,4.5,1.61,6.67c0.63,2.07,1.67,4.03,2.96,5.83c1.27,1.78,2.83,3.52,4.46,4.85
			l-2.26,1.69c-0.44-1.27-0.63-2.38-0.73-3.62c-0.09-1.21-0.02-2.47,0.28-3.7c0.3-1.23,0.85-2.42,1.61-3.45l0.6-0.75l0.54-0.61
			l1.09-1.22c2.89-3.26,5.83-6.49,8.77-9.71l0.55-0.61c0.04-0.05-0.04,0.05,0-0.01l0.09-0.16l0.18-0.34
			c0.24-0.46,0.48-0.94,0.72-1.42c0.47-0.96,0.9-1.94,1.29-2.93c0.75-1.98,1.42-4.05,1.53-6.09c0.09-2.05-0.46-4.16-1.28-6.14
			c-0.85-1.96-1.95-3.88-3.48-5.45c1.71,1.37,3.08,3.18,4.15,5.12c1.06,1.95,1.83,4.13,1.94,6.46c0.08,2.35-0.52,4.55-1.16,6.69
			c-0.34,1.07-0.72,2.12-1.14,3.15c-0.21,0.52-0.44,1.03-0.68,1.55l-0.19,0.39l-0.1,0.2c-0.03,0.06-0.17,0.28-0.21,0.33l-0.52,0.63
			c-2.79,3.38-5.58,6.75-8.42,10.09l-1.06,1.26l-0.53,0.63l-0.41,0.55c-0.51,0.74-0.87,1.58-1.07,2.48
			c-0.21,0.9-0.26,1.85-0.18,2.82c0.07,0.94,0.29,1.99,0.57,2.78l1.77,4.96l-4.03-3.27c-2.02-1.64-3.64-3.42-5.11-5.45
			c-1.43-2.03-2.61-4.28-3.32-6.72c-0.67-2.35-1.23-4.62-1.62-7.05c-0.37-2.4-0.53-4.9-0.2-7.4c0.3-2.49,1.08-4.97,2.41-7.11
			c0.63-1.07,1.43-2.09,2.18-2.99c0.75-0.9,1.5-1.79,2.23-2.7c1.47-1.81,2.94-3.63,4.11-5.56c0.3-0.48,0.54-0.97,0.75-1.45
			c0.19-0.47,0.28-0.98,0.21-1.18c0.01-0.04-0.03-0.04-0.04-0.06c-0.03-0.03,0.02-0.01-0.07-0.11c-0.16-0.16-0.28-0.35-0.38-0.54
			c-0.18-0.39-0.22-0.79-0.21-1.14c0.04-0.72,0.23-1.31,0.5-1.92l-0.04,0.17c0.2-1.62,0.42-3.24,0.57-4.87
			c0.05-0.8,0.18-1.65,0.09-2.4c-0.11-0.5,0.14-0.91,0.39-1.23C157.14,200.02,157.44,199.73,157.77,199.48z"/>
	</g>
	<g>
		<path class="st0" d="M156.57,211.25c1.04,0.31,1.86,0.53,2.64,0.71c0.77,0.18,1.47,0.32,2.19,0.43c0.72,0.09,1.44,0.21,2.26,0.28
			c0.41,0.07,0.83,0.06,1.29,0.15c0.46,0.06,0.93,0.09,1.48,0.24c-0.29,0.46-0.66,0.82-1.05,1.17c-0.42,0.29-0.85,0.59-1.34,0.77
			c-0.96,0.4-2.05,0.51-3.12,0.36c-1.07-0.16-2.09-0.65-2.89-1.35C157.25,213.29,156.65,212.35,156.57,211.25z"/>
	</g>
	<g>
		<path class="st0" d="M166.01,212.59c0.1-0.24,0.02-0.45-0.03-0.64c-0.07-0.19-0.13-0.37-0.22-0.55l-0.51-1.06l-0.01-0.28
			c-0.16-0.97-0.19-1.94-0.09-2.89c0.1-0.95,0.29-1.89,0.66-2.82l0.03-0.16c0.06-0.01,0.15-0.19,0.21-0.31
			c0.07-0.14,0.13-0.29,0.19-0.45c0.11-0.33,0.17-0.7,0.15-1.18c0.46,0.12,0.87,0.47,1.14,0.9c0.15,0.22,0.24,0.46,0.32,0.71
			c0.06,0.27,0.13,0.48,0.11,0.84l0.03-0.16c0.2,0.98,0.23,1.94,0.16,2.89c-0.07,0.95-0.27,1.9-0.59,2.83l-0.01-0.28
			c-0.05,0.49-0.13,1-0.35,1.5c-0.12,0.25-0.23,0.5-0.43,0.71C166.56,212.4,166.3,212.62,166.01,212.59z"/>
	</g>
	<g>
		<path class="st0" d="M156.98,208.05c0.98,0.23,1.73,0.43,2.44,0.61l1.95,0.51c0.63,0.15,1.25,0.35,1.95,0.51
			c0.71,0.21,1.47,0.37,2.43,0.75c-0.59,0.81-1.41,1.35-2.31,1.61c-0.91,0.29-1.91,0.27-2.84,0.03c-0.94-0.24-1.8-0.75-2.46-1.43
			C157.5,209.95,157.01,209.08,156.98,208.05z"/>
	</g>
	<g>
		<path class="st0" d="M157.31,200.43c0.99-0.13,1.82-0.06,2.6,0.06c0.78,0.13,1.5,0.33,2.19,0.58c0.69,0.24,1.34,0.56,2,0.92
			c0.66,0.37,1.29,0.78,2.11,1.37c-0.76,0.66-1.71,0.89-2.6,0.94c-0.89,0.04-1.75-0.13-2.55-0.41c-0.8-0.29-1.52-0.72-2.17-1.28
			C158.25,202.04,157.67,201.38,157.31,200.43z"/>
	</g>
	<g>
		<path class="st0" d="M157.77,200.06c-0.74-1.12-1.16-2.29-1.48-3.47c-0.31-1.18-0.49-2.37-0.56-3.58
			c-0.06-1.21-0.01-2.42,0.21-3.65c0.25-1.2,0.57-2.51,1.48-3.55c0.33,1.28,0.67,2.38,0.88,3.55c0.22,1.16,0.37,2.32,0.42,3.5
			c0.06,1.17,0.04,2.36-0.09,3.55C158.49,197.6,158.27,198.81,157.77,200.06z"/>
	</g>
	<g>
		<path class="st0" d="M157.21,192.49c1.1-0.12,2.05-0.05,2.96,0.07c0.91,0.13,1.76,0.33,2.59,0.56c0.83,0.23,1.63,0.53,2.44,0.84
			c0.82,0.32,1.61,0.67,2.63,1.12c-0.81,0.78-1.88,1.1-2.9,1.22c-1.04,0.11-2.04-0.03-2.99-0.3c-0.95-0.27-1.84-0.7-2.65-1.27
			C158.48,194.17,157.74,193.48,157.21,192.49z"/>
	</g>
	<g>
		<path class="st0" d="M157.12,189.02c1.15,0.02,2.12,0.16,3.06,0.34c0.93,0.18,1.82,0.4,2.69,0.65c0.87,0.26,1.72,0.54,2.59,0.86
			c0.88,0.36,1.77,0.67,2.79,1.25c-0.93,0.67-2.01,1.01-3.07,1.09c-1.07,0.09-2.14-0.02-3.15-0.33c-1.01-0.3-1.97-0.76-2.82-1.39
			C158.37,190.86,157.6,190.09,157.12,189.02z"/>
	</g>
	<g>
		<path class="st0" d="M157.71,186.79c1.11,0.08,2.02,0.19,2.9,0.34c0.88,0.15,1.71,0.32,2.54,0.53c0.83,0.18,1.65,0.45,2.51,0.72
			c0.86,0.31,1.74,0.62,2.71,1.2c-0.9,0.67-1.89,1.01-2.9,1.15c-1.01,0.16-2.04,0.07-3.04-0.16c-0.99-0.25-1.94-0.68-2.78-1.29
			C158.84,188.66,158.08,187.87,157.71,186.79z"/>
	</g>
	<g>
		<path class="st0" d="M157.08,186.08c0.27-8.7,0.68-17.4,1.17-26.1c0.25-4.35,0.53-8.7,0.86-13.04c0.34-4.35,0.73-8.68,1.45-13.05
			l-0.01,0.07c1.77-17.44,3.45-34.89,5.29-52.33c0.94-8.72,1.78-17.44,2.83-26.15l3.06-26.11l0.21-1.8l1.84,0.61l0.33,0.11
			l0.41,0.12c0.28,0.07,0.58,0.14,0.87,0.2l1.22,0.24l-0.02,1.25l-0.52,26.53l-0.14,6.63l-0.22,6.63l-0.48,13.26l-1,26.51
			l-1.12,26.51l0-0.09c0.19,4.45,0,8.82-0.24,13.2c-0.26,4.37-0.56,8.74-0.97,13.09c-0.82,8.71-1.79,17.39-2.88,26.06l0-0.05
			c0.09,2.45-0.26,4.87-0.8,7.22c-0.55,2.35-1.27,4.66-2.16,6.9c0.79-2.27,1.4-4.61,1.85-6.97c0.43-2.36,0.68-4.76,0.52-7.12l0-0.02
			l0-0.03c0.81-8.69,1.49-17.4,2.03-26.11c0.27-4.35,0.52-8.71,0.68-13.06c0.15-4.35,0.25-8.71-0.02-12.99l0-0.04l0-0.05l0.59-26.52
			l0.72-26.51l0.38-13.26l0.2-6.63l0.11-6.63l0.48-26.51l1.2,1.49c-0.35-0.07-0.7-0.15-1.05-0.24l-0.53-0.15
			c-0.2-0.06-0.33-0.1-0.61-0.21l2.05-1.19l-3.15,26.1c-1.1,8.69-2.06,17.4-3.07,26.11c-2,17.41-4.16,34.81-6.23,52.21l0,0.04
			l-0.01,0.03c-0.8,4.2-1.23,8.55-1.73,12.86c-0.47,4.32-0.88,8.65-1.27,12.98C158.45,168.72,157.77,177.4,157.08,186.08z"/>
	</g>
	<g>
		<path class="st0" d="M173.86,57.43c0.25,0.66,0.12,1.22-0.2,1.67c-0.33,0.44-0.96,0.74-1.62,0.69c-0.66-0.04-1.25-0.42-1.51-0.89
			c-0.27-0.48-0.31-1.03-0.02-1.67c0.37-0.08,0.62-0.1,0.85-0.13c0.23-0.06,0.4-0.07,0.54-0.12c0.28-0.07,0.33-0.2,0.34-0.18
			c0,0,0.04,0.12,0.3,0.24C172.78,57.16,173.18,57.28,173.86,57.43z"/>
	</g>
	<g>
		<path class="st0" d="M169.98,60.67c0.7,0.17,1.13,0.22,1.42,0.2c0.29-0.02,0.36-0.12,0.42-0.1c0.06,0.01,0.19,0.11,0.48,0.27
			c0.15,0.07,0.33,0.16,0.55,0.28c0.23,0.12,0.47,0.22,0.8,0.43c-0.03,0.72-0.31,1.22-0.74,1.58c-0.44,0.34-1.08,0.52-1.76,0.37
			c-0.69-0.15-1.28-0.67-1.49-1.25C169.44,61.86,169.5,61.23,169.98,60.67z"/>
	</g>
</g>
<g>
	<path class="st1" d="M152.82,273.52c-0.13,0.92,0.12,2.01,0.99,2.44c0.35,0.17,0.75,0.22,1.14,0.23c1.39,0.04,2.79-0.29,3.98-0.96
		c0.33-0.18,0.64-0.39,0.89-0.66c0.63-0.67,0.8-1.6,0.88-2.49c0.26-3.08-0.25-6.71-1.96-9.41
		C159.45,266.98,153.39,269.45,152.82,273.52z"/>
	<ellipse class="st1" cx="136.8" cy="288.79" rx="5.85" ry="2.54"/>
	<ellipse class="st1" cx="168.67" cy="303.76" rx="7.02" ry="1.83"/>
	<ellipse class="st1" cx="167.55" cy="286.24" rx="7.02" ry="1.83"/>
</g>
<circle class="st2" cx="160.23" cy="160.18" r="158.18"/>
</svg>
